<svg width="112" height="40" viewBox="0 0 112 40" fill="none" xmlns="http://www.w3.org/2000/svg">
<path d="M34.3519 9.53864L34.4293 9.58366C35.6353 10.3204 36.3775 11.6404 36.3775 13.0709V26.9284C36.3775 28.3891 35.6037 29.7346 34.3524 30.4615L34.3523 30.4615L22.4266 37.3908C21.176 38.1174 19.6349 38.1174 18.3842 37.3909C18.3842 37.3909 18.3841 37.3908 18.3841 37.3908L14.6424 35.216L14.6423 35.2159L12.4998 33.9709L12.4998 33.9709L6.45943 30.4615L6.45916 30.4614C5.20693 29.7344 4.43319 28.389 4.43319 26.9284V13.0709C4.43319 11.6115 5.20683 10.2661 6.45917 9.53904L6.45955 9.53881L18.3841 2.60852C18.3841 2.6085 18.3841 2.60847 18.3842 2.60844C19.6349 1.88192 21.1759 1.88194 22.4266 2.60848C22.4266 2.60849 22.4266 2.60851 22.4266 2.60852L30.2948 7.18051L30.2952 7.18076L31.2973 7.76376L31.2976 7.76393L32.3929 8.40061L32.3935 8.40097L33.441 9.00881L33.4419 9.0093L34.3519 9.53864Z" stroke="white" stroke-width="1.87908"/>
<path fill-rule="evenodd" clip-rule="evenodd" d="M30.5499 26.8605C30.5499 28.2289 29.4432 29.3381 28.0788 29.3381C27.5434 29.3381 27.049 29.1679 26.6445 28.8776C26.6305 28.8686 26.6175 28.8596 26.6045 28.8496L23.0797 30.8897L23.0397 30.9118L22.6012 31.159C21.2708 31.9078 19.7915 31.8307 18.6159 31.1931C17.3544 30.5103 16.4434 29.1829 16.4434 27.5422V18.5176H16.4414L13.2242 20.3796C13.2242 20.3796 13.2242 20.3806 13.2232 20.3806C13.2332 20.4667 13.2372 20.5508 13.2372 20.6378C13.2372 20.9782 13.1682 21.3036 13.0434 21.5989C12.6698 22.4898 11.7909 23.1155 10.7661 23.1155C10.6612 23.1155 10.5583 23.1085 10.4574 23.0955C10.0339 23.0434 9.64337 22.8832 9.31475 22.643C9.03408 22.4398 8.79836 22.1785 8.62556 21.8762C8.46974 21.6079 8.36386 21.3076 8.31892 20.9872C8.30194 20.8731 8.29395 20.756 8.29395 20.6378C8.29395 20.5478 8.29894 20.4587 8.30893 20.3706C8.44177 19.1272 9.49155 18.1602 10.7661 18.1602C11.3414 18.1602 11.8708 18.3574 12.2903 18.6888L16.4414 16.2872V14.6855C16.4414 13.6214 17.0098 12.6413 17.9287 12.1128L22.4474 9.52103C22.9198 9.25075 23.5201 9.41392 23.7898 9.88742C24.0595 10.3619 23.8957 10.9646 23.4243 11.2349L18.9055 13.8266C18.5989 14.0028 18.4081 14.3301 18.4081 14.6855V27.5422C18.4081 29.204 20.191 30.2511 21.6344 29.4372L22.2636 29.0828L25.6227 27.1388C25.6147 27.0727 25.6097 27.0046 25.6087 26.9365C25.6067 26.9115 25.6067 26.8865 25.6067 26.8605C25.6067 25.492 26.7134 24.3828 28.0788 24.3828C28.1118 24.3828 28.1457 24.3838 28.1787 24.3848C28.2037 24.3858 28.2286 24.3868 28.2536 24.3888C28.2756 24.3908 28.2966 24.3918 28.3185 24.3948C28.3974 24.4018 28.4744 24.4129 28.5513 24.4289C28.5762 24.4339 28.6022 24.4389 28.6272 24.4449C28.6522 24.4499 28.6771 24.4559 28.7021 24.4629C28.7261 24.4689 28.749 24.4749 28.772 24.4819C28.803 24.4909 28.8339 24.5 28.8639 24.51C28.8689 24.512 28.8739 24.514 28.8799 24.516C28.9208 24.53 28.9618 24.545 29.0017 24.562C29.0467 24.58 29.0916 24.6001 29.1356 24.6201C29.2415 24.6711 29.3443 24.7292 29.4412 24.7943C29.4692 24.8123 29.4972 24.8313 29.5231 24.8513C29.5301 24.8563 29.5381 24.8613 29.5451 24.8663C29.5461 24.8673 29.5461 24.8683 29.5471 24.8683C30.0835 25.2658 30.454 25.8764 30.533 26.5762C30.5429 26.6592 30.5489 26.7433 30.5489 26.8294C30.5499 26.8394 30.5499 26.8505 30.5499 26.8605Z" fill="white"/>
<path fill-rule="evenodd" clip-rule="evenodd" d="M30.5521 11.9152C30.5521 12.2355 30.4912 12.5418 30.3803 12.8221C30.3613 12.8682 30.3424 12.9142 30.3214 12.9603C30.3104 12.9823 30.2994 13.0053 30.2884 13.0274C30.2664 13.0734 30.2425 13.1185 30.2155 13.1625C30.2055 13.1805 30.1945 13.1985 30.1835 13.2166C30.1446 13.2806 30.1026 13.3417 30.0587 13.4008C30.0357 13.4318 30.0117 13.4618 29.9878 13.4909C29.9678 13.5149 29.9478 13.5389 29.9268 13.5619C29.9248 13.5649 29.9229 13.5669 29.9199 13.5689C29.9089 13.582 29.8969 13.595 29.8849 13.607C29.8739 13.62 29.8619 13.632 29.8489 13.644C29.8399 13.655 29.829 13.666 29.818 13.6761C29.78 13.7151 29.7401 13.7521 29.6991 13.7862C29.6761 13.8072 29.6532 13.8262 29.6292 13.8452C29.5503 13.9093 29.4684 13.9684 29.3825 14.0214C29.3655 14.0324 29.3485 14.0424 29.3315 14.0515C29.2736 14.0865 29.2137 14.1185 29.1528 14.1486C28.8281 14.3047 28.4646 14.3928 28.081 14.3928C27.4767 14.3928 26.9234 14.1756 26.4949 13.8152L22.2109 16.2948V26.1523C22.2109 26.6979 21.7704 27.1394 21.227 27.1394C20.6836 27.1394 20.2432 26.6979 20.2432 26.1523V16.0636C20.2432 15.531 20.5099 15.0385 20.9463 14.7472C20.9523 14.7442 20.9573 14.7402 20.9623 14.7372C20.9633 14.7372 20.9643 14.7372 20.9653 14.7352L21.0362 14.6941L25.6109 12.0473C25.6109 12.0373 25.6109 12.0273 25.6089 12.0183C25.6069 11.9843 25.6039 11.9512 25.6039 11.9162C25.6039 11.5328 25.6908 11.1694 25.8456 10.846C26.2442 10.0122 27.0922 9.43555 28.076 9.43555C28.1409 9.43555 28.2039 9.43855 28.2678 9.44356H28.2688C28.3177 9.44756 28.3667 9.45256 28.4146 9.46057C28.4146 9.46057 28.4156 9.46057 28.4176 9.46057C28.4666 9.46858 28.5155 9.47659 28.5634 9.4856C28.5644 9.4856 28.5654 9.4866 28.5674 9.4866C28.5824 9.4896 28.5984 9.49361 28.6134 9.49661C28.6364 9.50162 28.6583 9.50662 28.6803 9.51263C28.7213 9.52264 28.7612 9.53365 28.8012 9.54566C28.8161 9.54967 28.8301 9.55467 28.8451 9.55968C28.8601 9.56368 28.8741 9.56869 28.8891 9.57469C28.918 9.58471 28.948 9.59572 28.976 9.60673C29.1358 9.66779 29.2866 9.74588 29.4274 9.83898C29.7221 10.0302 29.9728 10.2834 30.1616 10.5798C30.3364 10.8511 30.4582 11.1594 30.5152 11.4897C30.5401 11.6279 30.5521 11.77 30.5521 11.9152Z" fill="white"/>
<path d="M50.1485 28.0626C49.3959 28.0626 48.7816 27.8323 48.3055 27.3715C47.8448 26.8954 47.6144 26.2658 47.6144 25.4825V19.0322H44.7578V16.6363H47.6144V13.0886H50.517V16.6363H53.6501V19.0322H50.517V24.9757C50.517 25.4364 50.7321 25.6668 51.1621 25.6668H53.3736V28.0626H50.1485Z" fill="white"/>
<path d="M58.9037 28.3852C58.0898 28.3852 57.3603 28.2469 56.7152 27.9705C56.0702 27.6787 55.5557 27.264 55.1718 26.7265C54.8032 26.1736 54.6189 25.5055 54.6189 24.7223C54.6189 23.939 54.8032 23.2863 55.1718 22.7641C55.5557 22.2266 56.0779 21.8273 56.7383 21.5662C57.414 21.2898 58.1819 21.1516 59.042 21.1516H62.175V20.5065C62.175 19.969 62.0061 19.5313 61.6682 19.1934C61.3303 18.8402 60.7928 18.6636 60.0556 18.6636C59.3338 18.6636 58.7962 18.8325 58.443 19.1704C58.0898 19.4929 57.8594 19.9152 57.7519 20.4374L55.0796 19.539C55.2639 18.9554 55.5557 18.4255 55.955 17.9494C56.3697 17.458 56.9149 17.0663 57.5906 16.7745C58.2818 16.4674 59.1188 16.3138 60.1017 16.3138C61.6067 16.3138 62.797 16.6901 63.6724 17.4426C64.5478 18.1951 64.9855 19.2856 64.9855 20.7139V24.9757C64.9855 25.4364 65.2005 25.6668 65.6305 25.6668H66.552V28.0626H64.6169C64.0487 28.0626 63.5802 27.9244 63.2117 27.648C62.8431 27.3715 62.6588 27.0029 62.6588 26.5422V26.5192H62.2211C62.1596 26.7035 62.0214 26.9492 61.8064 27.2563C61.5914 27.5481 61.2535 27.8092 60.7928 28.0396C60.332 28.27 59.7024 28.3852 58.9037 28.3852ZM59.4106 26.0354C60.2245 26.0354 60.8849 25.8127 61.3917 25.3673C61.9139 24.9066 62.175 24.2999 62.175 23.5474V23.317H59.2493C58.7118 23.317 58.2894 23.4322 57.9823 23.6626C57.6751 23.8929 57.5215 24.2155 57.5215 24.6301C57.5215 25.0448 57.6828 25.3827 58.0053 25.6438C58.3278 25.9048 58.7962 26.0354 59.4106 26.0354Z" fill="white"/>
<path d="M67.7528 28.0626V16.6363H70.6555V28.0626H67.7528ZM69.2041 15.3002C68.682 15.3002 68.2366 15.1312 67.868 14.7934C67.5148 14.4555 67.3381 14.0101 67.3381 13.4572C67.3381 12.9043 67.5148 12.4589 67.868 12.1211C68.2366 11.7832 68.682 11.6143 69.2041 11.6143C69.7417 11.6143 70.187 11.7832 70.5403 12.1211C70.8935 12.4589 71.0701 12.9043 71.0701 13.4572C71.0701 14.0101 70.8935 14.4555 70.5403 14.7934C70.187 15.1312 69.7417 15.3002 69.2041 15.3002Z" fill="white"/>
<path d="M72.9505 28.0626V11.9368H75.8532V28.0626H72.9505Z" fill="white"/>
<path d="M83.5158 28.3852C82.4101 28.3852 81.4041 28.1548 80.498 27.694C79.6072 27.2333 78.9008 26.5652 78.3786 25.6898C77.8564 24.8144 77.5953 23.7547 77.5953 22.5107V22.1882C77.5953 20.9442 77.8564 19.8845 78.3786 19.0091C78.9008 18.1337 79.6072 17.4656 80.498 17.0049C81.4041 16.5442 82.4101 16.3138 83.5158 16.3138C84.6062 16.3138 85.5431 16.5058 86.3263 16.8897C87.1096 17.2737 87.7393 17.8035 88.2154 18.4793C88.7068 19.1397 89.0293 19.8922 89.1829 20.7369L86.3724 21.3358C86.311 20.8751 86.1728 20.4604 85.9577 20.0919C85.7427 19.7233 85.4356 19.4315 85.0363 19.2164C84.6523 19.0014 84.1685 18.8939 83.5849 18.8939C83.0013 18.8939 82.4715 19.0245 81.9954 19.2856C81.5346 19.5313 81.1661 19.9076 80.8896 20.4144C80.6285 20.9058 80.498 21.5125 80.498 22.2343V22.4647C80.498 23.1865 80.6285 23.8008 80.8896 24.3076C81.1661 24.7991 81.5346 25.1753 81.9954 25.4364C82.4715 25.6822 83.0013 25.805 83.5849 25.805C84.4603 25.805 85.1207 25.5823 85.5661 25.1369C86.0269 24.6762 86.3187 24.0772 86.4415 23.3401L89.252 24.0081C89.0524 24.8221 88.7068 25.567 88.2154 26.2427C87.7393 26.9031 87.1096 27.4253 86.3263 27.8092C85.5431 28.1932 84.6062 28.3852 83.5158 28.3852Z" fill="white"/>
<path d="M94.2726 28.3852C93.4587 28.3852 92.7292 28.2469 92.0841 27.9705C91.4391 27.6787 90.9246 27.264 90.5406 26.7265C90.1721 26.1736 89.9878 25.5055 89.9878 24.7223C89.9878 23.939 90.1721 23.2863 90.5406 22.7641C90.9246 22.2266 91.4468 21.8273 92.1072 21.5662C92.7829 21.2898 93.5508 21.1516 94.4109 21.1516H97.5439V20.5065C97.5439 19.969 97.3749 19.5313 97.0371 19.1934C96.6992 18.8402 96.1617 18.6636 95.4245 18.6636C94.7027 18.6636 94.1651 18.8325 93.8119 19.1704C93.4587 19.4929 93.2283 19.9152 93.1208 20.4374L90.4485 19.539C90.6328 18.9554 90.9246 18.4255 91.3239 17.9494C91.7386 17.458 92.2838 17.0663 92.9595 16.7745C93.6506 16.4674 94.4876 16.3138 95.4706 16.3138C96.9756 16.3138 98.1659 16.6901 99.0413 17.4426C99.9167 18.1951 100.354 19.2856 100.354 20.7139V24.9757C100.354 25.4364 100.569 25.6668 100.999 25.6668H101.921V28.0626H99.9858C99.4175 28.0626 98.9491 27.9244 98.5805 27.648C98.2119 27.3715 98.0277 27.0029 98.0277 26.5422V26.5192H97.59C97.5285 26.7035 97.3903 26.9492 97.1753 27.2563C96.9603 27.5481 96.6224 27.8092 96.1617 28.0396C95.7009 28.27 95.0712 28.3852 94.2726 28.3852ZM94.7794 26.0354C95.5934 26.0354 96.2538 25.8127 96.7606 25.3673C97.2828 24.9066 97.5439 24.2999 97.5439 23.5474V23.317H94.6182C94.0807 23.317 93.6583 23.4322 93.3512 23.6626C93.044 23.8929 92.8904 24.2155 92.8904 24.6301C92.8904 25.0448 93.0517 25.3827 93.3742 25.6438C93.6967 25.9048 94.1651 26.0354 94.7794 26.0354Z" fill="white"/>
<path d="M103.122 28.0626V11.9368H106.024V28.0626H103.122Z" fill="white"/>
<path d="M108.319 28.0626V11.9368H111.222V28.0626H108.319Z" fill="white"/>
</svg>
