<?xml version="1.0" encoding="UTF-8"?><svg id="Layer_1" xmlns="http://www.w3.org/2000/svg" xmlns:xlink="http://www.w3.org/1999/xlink" viewBox="0 0 1920 668.71"><defs><style>.cls-1{clip-path:url(#clippath);}.cls-2{fill:none;}.cls-2,.cls-3,.cls-4{stroke-width:0px;}.cls-4{fill-rule:evenodd;}</style><clipPath id="clippath"><rect class="cls-2" width="599.13" height="668.71"/></clipPath></defs><path class="cls-3" d="m838.17,483.5c-13.33,0-24.21-4.08-32.65-12.24-8.16-8.43-12.24-19.59-12.24-33.46v-114.26h-50.6v-42.44h50.6v-62.84h51.42v62.84h55.5v42.44h-55.5v105.28c0,8.16,3.81,12.24,11.43,12.24h39.18v42.44h-57.13Z"/><path class="cls-3" d="m993.26,489.21c-14.42,0-27.34-2.45-38.77-7.34-11.43-5.17-20.54-12.51-27.34-22.04-6.53-9.79-9.8-21.63-9.8-35.5s3.27-25.44,9.8-34.69c6.8-9.52,16.05-16.59,27.75-21.22,11.97-4.9,25.57-7.34,40.81-7.34h55.5v-11.43c0-9.52-2.99-17.27-8.98-23.26-5.99-6.26-15.51-9.39-28.57-9.39s-22.31,2.99-28.57,8.98c-6.25,5.71-10.33,13.19-12.24,22.44l-47.34-15.91c3.27-10.34,8.44-19.72,15.51-28.16,7.34-8.71,17-15.64,28.97-20.81,12.25-5.44,27.07-8.16,44.48-8.16,26.66,0,47.74,6.66,63.25,19.99,15.51,13.33,23.26,32.65,23.26,57.95v75.49c0,8.16,3.81,12.24,11.43,12.24h16.32v42.44h-34.28c-10.07,0-18.36-2.45-24.89-7.35-6.53-4.9-9.8-11.43-9.8-19.59v-.41h-7.75c-1.08,3.26-3.53,7.62-7.35,13.06-3.8,5.17-9.79,9.79-17.95,13.87-8.17,4.08-19.32,6.12-33.46,6.12Zm8.98-41.62c14.42,0,26.12-3.94,35.09-11.83,9.25-8.16,13.88-18.91,13.88-32.24v-4.08h-51.82c-9.52,0-17,2.04-22.44,6.12-5.44,4.08-8.16,9.79-8.16,17.14s2.86,13.33,8.57,17.95c5.72,4.62,14.01,6.94,24.89,6.94Z"/><path class="cls-3" d="m1150.01,483.5v-202.4h51.42v202.4h-51.42Zm25.71-226.07c-9.25,0-17.14-2.99-23.67-8.98-6.26-5.98-9.39-13.87-9.39-23.67s3.13-17.68,9.39-23.67c6.52-5.98,14.42-8.98,23.67-8.98s17.41,2.99,23.67,8.98c6.26,5.99,9.39,13.87,9.39,23.67s-3.13,17.68-9.39,23.67c-6.25,5.99-14.15,8.98-23.67,8.98Z"/><path class="cls-3" d="m1242.07,483.5V197.85h51.42v285.65h-51.42Z"/><path class="cls-3" d="m1429.23,489.21c-19.59,0-37.4-4.08-53.45-12.24-15.78-8.16-28.3-20-37.54-35.5-9.25-15.51-13.88-34.28-13.88-56.31v-5.71c0-22.04,4.63-40.81,13.88-56.31,9.24-15.51,21.76-27.34,37.54-35.5,16.05-8.16,33.87-12.24,53.45-12.24s35.91,3.4,49.78,10.2c13.88,6.8,25.03,16.19,33.46,28.16,8.71,11.7,14.42,25.03,17.14,39.99l-49.78,10.61c-1.09-8.16-3.54-15.51-7.35-22.04-3.81-6.53-9.25-11.7-16.33-15.51-6.8-3.81-15.37-5.71-25.71-5.71s-19.72,2.31-28.15,6.94c-8.16,4.35-14.69,11.02-19.59,20-4.63,8.71-6.94,19.45-6.94,32.24v4.08c0,12.79,2.31,23.67,6.94,32.65,4.89,8.71,11.43,15.37,19.59,19.99,8.43,4.35,17.82,6.53,28.15,6.53,15.51,0,27.21-3.94,35.1-11.83,8.16-8.16,13.33-18.77,15.51-31.83l49.78,11.83c-3.53,14.42-9.66,27.61-18.36,39.58-8.43,11.7-19.59,20.95-33.46,27.75-13.87,6.8-30.47,10.2-49.78,10.2Z"/><path class="cls-3" d="m1619.77,489.21c-14.42,0-27.34-2.45-38.77-7.34-11.43-5.17-20.54-12.51-27.34-22.04-6.53-9.79-9.8-21.63-9.8-35.5s3.27-25.44,9.8-34.69c6.8-9.52,16.05-16.59,27.75-21.22,11.96-4.9,25.57-7.34,40.81-7.34h55.49v-11.43c0-9.52-2.99-17.27-8.98-23.26-5.99-6.26-15.51-9.39-28.57-9.39s-22.31,2.99-28.56,8.98c-6.26,5.71-10.34,13.19-12.25,22.44l-47.33-15.91c3.27-10.34,8.43-19.72,15.51-28.16,7.35-8.71,17-15.64,28.97-20.81,12.24-5.44,27.07-8.16,44.48-8.16,26.66,0,47.74,6.66,63.25,19.99,15.51,13.33,23.26,32.65,23.26,57.95v75.49c0,8.16,3.8,12.24,11.43,12.24h16.32v42.44h-34.28c-10.07,0-18.36-2.45-24.89-7.35-6.52-4.9-9.79-11.43-9.79-19.59v-.41h-7.75c-1.09,3.26-3.54,7.62-7.35,13.06-3.81,5.17-9.8,9.79-17.96,13.87s-19.32,6.12-33.46,6.12Zm8.98-41.62c14.42,0,26.12-3.94,35.1-11.83,9.24-8.16,13.87-18.91,13.87-32.24v-4.08h-51.82c-9.53,0-17,2.04-22.45,6.12-5.44,4.08-8.16,9.79-8.16,17.14s2.86,13.33,8.57,17.95c5.71,4.62,14.01,6.94,24.89,6.94Z"/><path class="cls-3" d="m1776.51,483.5V197.85h51.42v285.65h-51.42Z"/><path class="cls-3" d="m1868.59,483.5V197.85h51.41v285.65h-51.41Z"/><g class="cls-1"><path class="cls-3" d="m299.57,668.67c-15.27,0-30.54-3.96-44.16-11.87l-211.24-122.75C16.93,518.24,0,488.74,0,457.08v-245.47C0,179.97,16.92,150.48,44.18,134.66L255.4,11.9c27.25-15.82,61.09-15.83,88.33,0l212.6,123.55c26.53,16.2,42.8,45.31,42.8,76.17v245.47c0,31.65-16.92,61.15-44.15,76.97l-211.25,122.75c-13.62,7.91-28.89,11.87-44.16,11.87Zm0-635.37c-9.49,0-18.97,2.46-27.44,7.38L60.9,163.44c-17.04,9.89-27.62,28.34-27.62,48.17v245.47c0,19.84,10.58,38.31,27.6,48.19l211.24,122.76c16.93,9.83,37.95,9.83,54.88,0l211.25-122.75c17.02-9.89,27.59-28.35,27.59-48.19v-245.47c0-19.34-10.17-37.57-26.54-47.57l-72.92-42.38-139.37-80.98c-8.46-4.92-17.96-7.38-27.44-7.38Z"/><path class="cls-4" d="m479.27,451.83c0,24.24-19.6,43.89-43.77,43.89-9.48,0-18.24-3.01-25.41-8.16-.25-.16-.48-.32-.71-.5l-62.44,36.14-.71.39-7.77,4.38c-23.57,13.26-49.77,11.9-70.59.6-22.35-12.09-38.48-35.61-38.48-64.67v-159.86h-.04l-56.99,32.98s0,.02-.02.02c.18,1.52.25,3.01.25,4.56,0,6.03-1.22,11.79-3.43,17.02-6.62,15.78-22.19,26.86-40.34,26.86-1.86,0-3.68-.12-5.47-.35-7.5-.92-14.42-3.76-20.24-8.02-4.97-3.6-9.15-8.23-12.21-13.58-2.76-4.75-4.64-10.07-5.43-15.75-.3-2.02-.44-4.1-.44-6.19,0-1.6.09-3.17.27-4.73,2.35-22.02,20.95-39.15,43.52-39.15,10.19,0,19.57,3.49,27,9.36l73.53-42.54v-28.37c0-18.85,10.07-36.21,26.34-45.57l80.04-45.91c8.37-4.79,19-1.9,23.78,6.49,4.78,8.41,1.88,19.08-6.48,23.87l-80.04,45.91c-5.43,3.12-8.81,8.92-8.81,15.21v227.74c0,29.44,31.58,47.98,57.15,33.57l11.15-6.28,59.5-34.44c-.14-1.17-.23-2.38-.25-3.58-.04-.44-.04-.89-.04-1.35,0-24.24,19.6-43.89,43.79-43.89.58,0,1.19.02,1.77.04.44.02.88.04,1.33.07.39.04.76.05,1.15.11,1.4.12,2.76.32,4.12.6.44.09.9.18,1.35.28.44.09.88.19,1.33.32.42.11.83.21,1.24.34.55.16,1.1.32,1.63.5.09.04.18.07.28.11.73.25,1.45.51,2.16.82.8.32,1.59.67,2.37,1.03,1.88.9,3.7,1.93,5.41,3.09.5.32.99.66,1.45,1.01.12.09.27.18.39.27.02.02.02.04.04.04,9.5,7.04,16.07,17.86,17.46,30.25.18,1.47.28,2.96.28,4.49.02.18.02.37.02.55Z"/><path class="cls-4" d="m479.31,187.1c0,5.67-1.08,11.1-3.04,16.07-.34.82-.67,1.63-1.04,2.45-.19.39-.39.8-.58,1.19-.39.82-.81,1.61-1.29,2.39-.18.32-.37.64-.57.96-.69,1.13-1.43,2.22-2.21,3.26-.41.55-.83,1.08-1.26,1.6-.35.43-.71.85-1.08,1.26-.04.05-.07.09-.12.12-.19.23-.41.46-.62.67-.19.23-.41.44-.64.66-.16.19-.35.39-.55.57-.67.69-1.38,1.35-2.11,1.95-.41.37-.81.71-1.24,1.05-1.4,1.13-2.85,2.18-4.37,3.12-.3.19-.6.37-.9.53-1.03.62-2.09,1.19-3.17,1.72-5.75,2.77-12.19,4.33-18.98,4.33-10.7,0-20.51-3.85-28.1-10.23l-75.88,43.92v174.61c0,9.66-7.8,17.48-17.43,17.48s-17.43-7.82-17.43-17.48v-178.71c0-9.43,4.72-18.16,12.46-23.32.11-.05.19-.12.28-.18.02,0,.04,0,.05-.04l1.26-.73,81.03-46.88c0-.18,0-.35-.04-.51-.04-.6-.09-1.19-.09-1.81,0-6.79,1.54-13.23,4.28-18.96,7.06-14.77,22.08-24.99,39.51-24.99,1.15,0,2.26.05,3.4.14h.02c.87.07,1.73.16,2.58.3h.05c.87.14,1.73.28,2.58.44.02,0,.04.02.07.02.27.05.55.12.81.18.41.09.8.18,1.19.28.73.18,1.43.37,2.14.58.27.07.51.16.78.25.27.07.51.16.78.27.51.18,1.04.37,1.54.57,2.83,1.08,5.5,2.46,8,4.11,5.22,3.39,9.66,7.87,13,13.12,3.1,4.81,5.25,10.27,6.26,16.12.44,2.45.65,4.97.65,7.54Z"/></g></svg>