<svg width="115" height="40" viewBox="0 0 115 40" fill="none" xmlns="http://www.w3.org/2000/svg">
<g clip-path="url(#clip0_4916_220448)">
<path d="M33.197 8.0546L32.2318 7.4932L31.121 6.84864L29.9605 6.17404L28.8982 5.55604L20.5608 0.711408C18.9264 -0.238113 16.9117 -0.238113 15.2773 0.711408L2.64235 8.0546C1.00677 9.00412 0 10.7588 0 12.6578V27.3407C0 29.2409 1.00677 30.9956 2.64235 31.9451L9.04247 35.6635L11.3126 36.9826L15.2773 39.2871C16.9117 40.2366 18.9264 40.2366 20.5608 39.2871L33.197 31.9451C34.8314 30.9956 35.8382 29.2409 35.8382 27.3407V12.6578C35.8382 10.7576 34.8314 9.00296 33.197 8.05344V8.0546Z" fill="#FDEA2E"/>
<path fill-rule="evenodd" clip-rule="evenodd" d="M28.6684 26.7878C28.6684 28.2378 27.4958 29.413 26.0501 29.413C25.4829 29.413 24.959 29.2327 24.5304 28.9251C24.5156 28.9156 24.5018 28.906 24.488 28.8954L20.7532 31.0571L20.7109 31.0804L20.2463 31.3424C18.8366 32.1358 17.2692 32.0542 16.0235 31.3785C14.6868 30.6551 13.7216 29.2486 13.7216 27.5101V17.948H13.7195L10.3106 19.9209C10.3106 19.9209 10.3106 19.9219 10.3096 19.9219C10.3202 20.0132 10.3244 20.1023 10.3244 20.1945C10.3244 20.5552 10.2514 20.8999 10.1191 21.2128C9.72328 22.1568 8.79195 22.8198 7.7061 22.8198C7.59497 22.8198 7.48597 22.8123 7.37907 22.7985C6.93034 22.7434 6.51654 22.5737 6.16834 22.3191C5.87095 22.1038 5.62119 21.8269 5.4381 21.5066C5.273 21.2223 5.16081 20.9041 5.11319 20.5647C5.0952 20.4438 5.08673 20.3197 5.08673 20.1945C5.08673 20.0991 5.09202 20.0047 5.10261 19.9113C5.24336 18.5939 6.35567 17.5693 7.7061 17.5693C8.3157 17.5693 8.87661 17.7783 9.32111 18.1294L13.7195 15.5848V13.8876C13.7195 12.7601 14.3217 11.7217 15.2954 11.1617L20.0833 8.41552C20.5839 8.12913 21.2199 8.30203 21.5057 8.80373C21.7914 9.3065 21.6179 9.94504 21.1183 10.2314L16.3304 12.9776C16.0055 13.1643 15.8034 13.5111 15.8034 13.8876V27.5101C15.8034 29.2709 17.6925 30.3804 19.2218 29.518L19.8885 29.1426L23.4477 27.0827C23.4392 27.0127 23.4339 26.9406 23.4329 26.8684C23.4308 26.8419 23.4308 26.8154 23.4308 26.7878C23.4308 25.3378 24.6034 24.1626 26.0501 24.1626C26.0851 24.1626 26.121 24.1637 26.156 24.1647C26.1824 24.1658 26.2089 24.1668 26.2353 24.169C26.2586 24.1711 26.2809 24.1721 26.3041 24.1753C26.3877 24.1827 26.4692 24.1944 26.5507 24.2114C26.5772 24.2167 26.6047 24.222 26.6312 24.2284C26.6576 24.2337 26.6841 24.24 26.7105 24.2474C26.7359 24.2538 26.7603 24.2602 26.7846 24.2676C26.8174 24.2771 26.8502 24.2867 26.882 24.2973C26.8873 24.2994 26.8926 24.3015 26.8989 24.3037C26.9423 24.3185 26.9857 24.3344 27.028 24.3525C27.0757 24.3715 27.1233 24.3928 27.1699 24.414C27.282 24.4681 27.391 24.5296 27.4937 24.5985C27.5233 24.6176 27.553 24.6378 27.5805 24.659C27.5879 24.6643 27.5964 24.6696 27.6038 24.6749C27.6048 24.676 27.6048 24.677 27.6059 24.677C28.1742 25.0981 28.5668 25.7451 28.6505 26.4866C28.661 26.5746 28.6674 26.6637 28.6674 26.7549C28.6684 26.7655 28.6684 26.7772 28.6684 26.7878Z" fill="black"/>
<path fill-rule="evenodd" clip-rule="evenodd" d="M28.6705 10.9528C28.6705 11.2922 28.606 11.6168 28.4885 11.9138C28.4684 11.9626 28.4483 12.0114 28.4261 12.0601C28.4144 12.0835 28.4028 12.1079 28.3911 12.1312C28.3678 12.18 28.3424 12.2277 28.3139 12.2744C28.3033 12.2935 28.2916 12.3126 28.28 12.3317C28.2387 12.3996 28.1943 12.4643 28.1477 12.5269C28.1234 12.5597 28.098 12.5916 28.0726 12.6223C28.0514 12.6478 28.0302 12.6732 28.008 12.6976C28.0059 12.7008 28.0038 12.7029 28.0006 12.705C27.989 12.7188 27.9763 12.7326 27.9636 12.7454C27.9519 12.7591 27.9392 12.7719 27.9255 12.7846C27.9159 12.7963 27.9043 12.8079 27.8927 12.8185C27.8524 12.8599 27.8101 12.8992 27.7667 12.9352C27.7424 12.9575 27.718 12.9776 27.6926 12.9978C27.609 13.0657 27.5222 13.1283 27.4312 13.1845C27.4132 13.1961 27.3952 13.2068 27.3772 13.2163C27.3159 13.2534 27.2524 13.2874 27.1878 13.3192C26.8438 13.4847 26.4586 13.578 26.0522 13.578C25.4119 13.578 24.8256 13.3478 24.3716 12.966L19.8324 15.5933V26.038C19.8324 26.6161 19.3657 27.0838 18.79 27.0838C18.2142 27.0838 17.7475 26.6161 17.7475 26.038V15.3483C17.7475 14.784 18.0301 14.2621 18.4926 13.9535C18.4989 13.9503 18.5042 13.9461 18.5095 13.9429C18.5106 13.9429 18.5116 13.9429 18.5127 13.9408L18.5878 13.8973L23.435 11.0928C23.435 11.0822 23.435 11.0716 23.4328 11.062C23.4307 11.026 23.4276 10.991 23.4276 10.9538C23.4276 10.5476 23.5196 10.1626 23.6837 9.81996C24.1059 8.9364 25.0045 8.32544 26.0469 8.32544C26.1157 8.32544 26.1824 8.32862 26.2501 8.33393H26.2512C26.303 8.33817 26.3549 8.34347 26.4057 8.35196C26.4057 8.35196 26.4068 8.35196 26.4089 8.35196C26.4607 8.36044 26.5126 8.36893 26.5634 8.37847C26.5644 8.37847 26.5655 8.37953 26.5676 8.37953C26.5835 8.38272 26.6004 8.38696 26.6163 8.39014C26.6406 8.39545 26.6639 8.40075 26.6872 8.40711C26.7306 8.41772 26.7729 8.42939 26.8153 8.44212C26.8311 8.44636 26.846 8.45166 26.8618 8.45697C26.8777 8.46121 26.8925 8.46651 26.9084 8.47288C26.9391 8.48348 26.9708 8.49515 27.0005 8.50682C27.1698 8.57152 27.3296 8.65425 27.4788 8.7529C27.7911 8.95549 28.0567 9.22385 28.2567 9.53781C28.4419 9.82526 28.571 10.152 28.6314 10.502C28.6578 10.6484 28.6705 10.799 28.6705 10.9528Z" fill="black"/>
</g>
<path d="M50.1511 28.5432C49.3537 28.5432 48.7028 28.2991 48.1983 27.8109C47.7102 27.3064 47.4661 26.6392 47.4661 25.8093V18.9747H44.4393V16.4362H47.4661V12.6772H50.5416V16.4362H53.8613V18.9747H50.5416V25.2723C50.5416 25.7605 50.7694 26.0046 51.2251 26.0046H53.5684V28.5432H50.1511Z" fill="white"/>
<path d="M59.4279 28.8849C58.5654 28.8849 57.7925 28.7384 57.109 28.4455C56.4256 28.1363 55.8804 27.697 55.4736 27.1274C55.0831 26.5416 54.8878 25.8337 54.8878 25.0038C54.8878 24.1739 55.0831 23.4823 55.4736 22.929C55.8804 22.3595 56.4337 21.9364 57.1334 21.6598C57.8494 21.3668 58.6631 21.2204 59.5744 21.2204H62.894V20.5369C62.894 19.9674 62.715 19.5036 62.357 19.1456C61.999 18.7713 61.4295 18.5842 60.6484 18.5842C59.8835 18.5842 59.314 18.7632 58.9397 19.1212C58.5654 19.4629 58.3213 19.9104 58.2074 20.4637L55.376 19.5118C55.5712 18.8934 55.8804 18.332 56.3035 17.8275C56.7429 17.3068 57.3206 16.8918 58.0366 16.5826C58.7689 16.2572 59.6557 16.0945 60.6972 16.0945C62.2919 16.0945 63.553 16.4931 64.4806 17.2905C65.4081 18.0879 65.8719 19.2433 65.8719 20.7566V25.2723C65.8719 25.7605 66.0997 26.0046 66.5554 26.0046H67.5317V28.5432H65.4814C64.8793 28.5432 64.383 28.3967 63.9924 28.1038C63.6019 27.8109 63.4066 27.4203 63.4066 26.9321V26.9077H62.9428C62.8777 27.103 62.7313 27.3634 62.5035 27.6888C62.2756 27.998 61.9176 28.2747 61.4295 28.5187C60.9413 28.7628 60.2741 28.8849 59.4279 28.8849ZM59.9649 26.3951C60.8274 26.3951 61.5271 26.1592 62.0641 25.6873C62.6174 25.1991 62.894 24.5563 62.894 23.759V23.5149H59.794C59.2245 23.5149 58.777 23.6369 58.4515 23.881C58.1261 24.1251 57.9633 24.4668 57.9633 24.9062C57.9633 25.3455 58.1342 25.7035 58.4759 25.9802C58.8177 26.2568 59.314 26.3951 59.9649 26.3951Z" fill="white"/>
<path d="M68.8041 28.5432V16.4362H71.8796V28.5432H68.8041ZM70.3419 15.0205C69.7886 15.0205 69.3167 14.8415 68.9261 14.4835C68.5518 14.1255 68.3647 13.6535 68.3647 13.0677C68.3647 12.4819 68.5518 12.01 68.9261 11.652C69.3167 11.294 69.7886 11.115 70.3419 11.115C70.9114 11.115 71.3833 11.294 71.7576 11.652C72.1319 12.01 72.319 12.4819 72.319 13.0677C72.319 13.6535 72.1319 14.1255 71.7576 14.4835C71.3833 14.8415 70.9114 15.0205 70.3419 15.0205Z" fill="white"/>
<path d="M74.3114 28.5432V11.4567H77.3869V28.5432H74.3114Z" fill="white"/>
<path d="M85.5061 28.8849C84.3344 28.8849 83.2685 28.6408 82.3084 28.1526C81.3646 27.6644 80.6161 26.9566 80.0628 26.029C79.5095 25.1015 79.2329 23.9786 79.2329 22.6605V22.3188C79.2329 21.0007 79.5095 19.8779 80.0628 18.9503C80.6161 18.0228 81.3646 17.3149 82.3084 16.8267C83.2685 16.3386 84.3344 16.0945 85.5061 16.0945C86.6614 16.0945 87.6541 16.2979 88.484 16.7047C89.3139 17.1115 89.9811 17.6729 90.4855 18.3889C91.0063 19.0887 91.348 19.886 91.5107 20.781L88.5328 21.4157C88.4677 20.9275 88.3212 20.4881 88.0934 20.0976C87.8656 19.707 87.5401 19.3978 87.1171 19.17C86.7102 18.9422 86.1976 18.8283 85.5793 18.8283C84.9609 18.8283 84.3995 18.9666 83.895 19.2433C83.4069 19.5036 83.0163 19.9023 82.7234 20.4393C82.4468 20.96 82.3084 21.6028 82.3084 22.3676V22.6117C82.3084 23.3765 82.4468 24.0275 82.7234 24.5645C83.0163 25.0852 83.4069 25.4839 83.895 25.7605C84.3995 26.0209 84.9609 26.1511 85.5793 26.1511C86.5068 26.1511 87.2066 25.9151 87.6785 25.4432C88.1666 24.955 88.4758 24.3204 88.606 23.5393L91.5839 24.2471C91.3724 25.1096 91.0063 25.8988 90.4855 26.6148C89.9811 27.3146 89.3139 27.8678 88.484 28.2747C87.6541 28.6815 86.6614 28.8849 85.5061 28.8849Z" fill="white"/>
<path d="M96.9036 28.8849C96.0411 28.8849 95.2682 28.7384 94.5847 28.4455C93.9013 28.1363 93.3561 27.697 92.9493 27.1274C92.5588 26.5416 92.3635 25.8337 92.3635 25.0038C92.3635 24.1739 92.5588 23.4823 92.9493 22.929C93.3561 22.3595 93.9094 21.9364 94.6091 21.6598C95.3251 21.3668 96.1388 21.2204 97.0501 21.2204H100.37V20.5369C100.37 19.9674 100.191 19.5036 99.8327 19.1456C99.4747 18.7713 98.9052 18.5842 98.1241 18.5842C97.3592 18.5842 96.7897 18.7632 96.4154 19.1212C96.0411 19.4629 95.7971 19.9104 95.6832 20.4637L92.8517 19.5118C93.047 18.8934 93.3561 18.332 93.7792 17.8275C94.2186 17.3068 94.7963 16.8918 95.5123 16.5826C96.2446 16.2572 97.1314 16.0945 98.1729 16.0945C99.7676 16.0945 101.029 16.4931 101.956 17.2905C102.884 18.0879 103.348 19.2433 103.348 20.7566V25.2723C103.348 25.7605 103.575 26.0046 104.031 26.0046H105.007V28.5432H102.957C102.355 28.5432 101.859 28.3967 101.468 28.1038C101.078 27.8109 100.882 27.4203 100.882 26.9321V26.9077H100.419C100.353 27.103 100.207 27.3634 99.9792 27.6888C99.7513 27.998 99.3933 28.2747 98.9052 28.5187C98.417 28.7628 97.7498 28.8849 96.9036 28.8849ZM97.4406 26.3951C98.3031 26.3951 99.0028 26.1592 99.5398 25.6873C100.093 25.1991 100.37 24.5563 100.37 23.759V23.5149H97.2697C96.7002 23.5149 96.2527 23.6369 95.9272 23.881C95.6018 24.1251 95.4391 24.4668 95.4391 24.9062C95.4391 25.3455 95.6099 25.7035 95.9516 25.9802C96.2934 26.2568 96.7897 26.3951 97.4406 26.3951Z" fill="white"/>
<path d="M106.28 28.5432V11.4567H109.355V28.5432H106.28Z" fill="white"/>
<path d="M111.787 28.5432V11.4567H114.863V28.5432H111.787Z" fill="white"/>
<defs>
<clipPath id="clip0_4916_220448">
<rect width="35.8382" height="40" fill="white"/>
</clipPath>
</defs>
</svg>
