<svg width="16" height="16" viewBox="0 0 16 16" fill="none" xmlns="http://www.w3.org/2000/svg">
<path d="M12 14C13.1046 14 14 13.1046 14 12C14 10.8954 13.1046 10 12 10C10.8954 10 10 10.8954 10 12C10 13.1046 10.8954 14 12 14Z" stroke="#121315" stroke-width="1.33333" stroke-linecap="round" stroke-linejoin="round"/>
<path d="M4 6C5.10457 6 6 5.10457 6 4C6 2.89543 5.10457 2 4 2C2.89543 2 2 2.89543 2 4C2 5.10457 2.89543 6 4 6Z" stroke="#121315" stroke-width="1.33333" stroke-linecap="round" stroke-linejoin="round"/>
<path d="M4 14V6C4 7.5913 4.63214 9.11742 5.75736 10.2426C6.88258 11.3679 8.4087 12 10 12" stroke="#121315" stroke-width="1.33333" stroke-linecap="round" stroke-linejoin="round"/>
</svg>
